<svg xmlns="http://www.w3.org/2000/svg" width="800" height="1000" viewBox="0 0 800 1000">
  <rect width="800" height="1000" rx="18" fill="#101010"/>
  <rect x="2" y="2" width="796" height="996" rx="16" fill="none" stroke="#72d7ff" stroke-width="3"/>
  <g fill="#f2f2f2" font-family="monospace">
    <text x="42" y="65" font-size="30" font-weight="bold">●  LiteLLM</text>
    <text x="42" y="98" font-size="20" fill="#a9a9a9">$75 today · $220 this budget period</text>
    <g font-size="20">
      <rect x="32" y="130" width="235" height="54" fill="#3f3f3f" stroke="#777"/>
      <rect x="282" y="130" width="235" height="54" fill="#151515" stroke="#777"/>
      <rect x="532" y="130" width="235" height="54" fill="#3f3f3f" stroke="#777"/>
      <text x="73" y="164">Claude Code</text><text x="369" y="164">Codex</text><text x="611" y="164">LiteLLM</text>
    </g>
    <line x1="32" y1="214" x2="768" y2="214" stroke="#333" stroke-width="2"/>
    <text x="32" y="260" font-size="18" fill="#a9a9a9">LIMITS</text>
    <text x="32" y="302" font-size="24">Weekly budget</text><text x="730" y="302" font-size="24" text-anchor="end">55%</text>
    <rect x="32" y="322" width="736" height="12" rx="6" fill="#383838"/><rect x="32" y="322" width="405" height="12" rx="6" fill="#e5e5e5"/>
    <text x="32" y="365" font-size="18" fill="#a9a9a9">Resets in 5d 2h</text>
    <line x1="32" y1="397" x2="768" y2="397" stroke="#333" stroke-width="2"/>
    <text x="32" y="443" font-size="18" fill="#a9a9a9">TOKENS BY DAY</text>
  </g>
  <g font-family="monospace" font-size="20" fill="#ddd">
    <text x="32" y="492">Wed</text><text x="730" y="492" text-anchor="end">48M</text>
    <text x="32" y="540">Thu</text><text x="730" y="540" text-anchor="end">106M</text>
    <text x="32" y="588">Fri</text><text x="730" y="588" text-anchor="end">0</text>
    <text x="32" y="636">Sat</text><text x="730" y="636" text-anchor="end">34M</text>
    <text x="32" y="684">Sun</text><text x="730" y="684" text-anchor="end">139M</text>
    <text x="32" y="732">Mon</text><text x="730" y="732" text-anchor="end">174M</text>
    <text x="32" y="780" font-weight="bold">Today</text><text x="730" y="780" text-anchor="end" font-weight="bold">79M</text>
  </g>
  <g fill="#393939">
    <rect x="145" y="477" width="470" height="12" rx="6"/><rect x="145" y="525" width="350" height="12" rx="6"/><rect x="145" y="573" width="3" height="12" rx="6"/><rect x="145" y="621" width="120" height="12" rx="6"/><rect x="145" y="669" width="470" height="12" rx="6"/><rect x="145" y="717" width="470" height="12" rx="6"/><rect x="145" y="765" width="215" height="12" rx="6" fill="#e5e5e5"/>
  </g>
  <g fill="#f2f2f2" font-family="monospace">
    <text x="32" y="840" font-size="18" fill="#a9a9a9">TOKENS BY MODEL</text>
    <rect x="32" y="865" width="736" height="42" fill="#3b3b3b"/><text x="52" y="893" font-size="20">Model 1</text><text x="745" y="893" font-size="20" text-anchor="end">326M</text>
    <rect x="32" y="917" width="500" height="42" fill="#3b3b3b"/><text x="52" y="945" font-size="20">Model 2</text><text x="745" y="945" font-size="20" text-anchor="end">127M</text>
  </g>
</svg>
